<?xml version="1.0" encoding="utf-8"?>
<!-- Generator: Adobe Illustrator 24.3.0, SVG Export Plug-In . SVG Version: 6.00 Build 0)  -->
<svg version="1.1" id="레이어_1" xmlns="http://www.w3.org/2000/svg" xmlns:xlink="http://www.w3.org/1999/xlink" x="0px"
	 y="0px" viewBox="0 0 22.8 21.3" style="enable-background:new 0 0 22.8 21.3;" xml:space="preserve">
<g id="레이어_2_1_">
	<g id="레이어_1-2">
		<path d="M17,21c-0.1,0-0.2,0-0.3-0.1l-5-3.9h-8c-2-0.1-3.5-1.8-3.4-3.8l0-9c-0.2-2,1.2-3.7,3.3-3.9l15.6,0c1,0.1,1.9,0.5,2.5,1.2
			c0.6,0.7,1,1.7,0.9,2.6l0,9.2c0.1,0.9-0.3,1.9-0.9,2.6c-0.6,0.7-1.5,1.2-2.5,1.2l-1.7,0v3.5c0,0.2-0.1,0.4-0.3,0.4
			C17.1,21,17.1,21,17,21z M11.9,16c0.1,0,0.2,0,0.3,0.1l4.3,3.4v-3c0-0.3,0.2-0.5,0.5-0.5h2.2c0.7,0,1.3-0.4,1.7-0.9
			c0.5-0.5,0.7-1.2,0.7-1.9l0-9.2c0-0.7-0.2-1.4-0.7-1.9c-0.5-0.5-1.1-0.8-1.8-0.9l-15.5,0C2.2,1.4,1.1,2.6,1.3,4c0,0,0,0,0,0.1v9.1
			c-0.1,1.5,1,2.7,2.4,2.8L11.9,16z"/>
	</g>
</g>
</svg>
