<svg xmlns="http://www.w3.org/2000/svg" viewBox="0 0 757.08 216.43"><defs><style>.cls-1{fill:#0d2636;}</style></defs><g id="레이어_2" data-name="레이어 2"><g id="레이어_1-2" data-name="레이어 1"><path class="cls-1" d="M112.36,0l8,.57A102.69,102.69,0,0,1,143.78,5a109,109,0,0,1,29.89,14.5,110.89,110.89,0,0,1,46.44,72,107.81,107.81,0,0,1,1.47,26.84,110,110,0,0,1-23.33,61,109,109,0,0,1-40.66,32.31c-3.51,1.63-7.18,2.93-10.79,4.33a6.49,6.49,0,0,1-4.77,0c-2.26-.86-3.32-2.84-3.3-6,.08-10.11.26-20.22.18-30.32,0-6.18-1.28-12.13-5.14-17.22-.6-.79-1.3-1.51-2.06-2.38,2.51-.39,4.88-.7,7.22-1.13,8.8-1.61,17.21-4.23,24.59-9.53,8.13-5.86,13.18-13.82,15.88-23.34A69.58,69.58,0,0,0,181.66,99a40.55,40.55,0,0,0-10-22.53,2.15,2.15,0,0,1-.56-2.4c3-9.3,2.15-18.45-1.28-27.45a2,2,0,0,0-1.52-.93A27.54,27.54,0,0,0,154,48.82c-4.85,2.37-9.48,5.21-14.24,7.8a2.53,2.53,0,0,1-1.67.29,104.25,104.25,0,0,0-30.8-3.41A96.1,96.1,0,0,0,85,56.82a2.87,2.87,0,0,1-2.64-.37,75.32,75.32,0,0,0-19.09-9.54,25.84,25.84,0,0,0-9.08-1.28,1.62,1.62,0,0,0-1.68,1.21c-3.4,9.09-4.17,18.28-1.06,27.6a1.68,1.68,0,0,1-.54,1.88A42.16,42.16,0,0,0,43.62,88a39.9,39.9,0,0,0-3.17,13.52c-.45,9.32.32,18.53,3.42,27.42,4.39,12.6,12.93,21.19,25.31,26.09a77.7,77.7,0,0,0,20.48,4.85c.22,0,.43.16.32.12-1.55,2.75-3.22,5.42-4.56,8.26A25.4,25.4,0,0,0,84,173.51a2.2,2.2,0,0,1-1.51,1.81c-5.36,2-10.81,3-16.49,1.64-6.07-1.4-10.41-5.16-13.68-10.27-2.92-4.56-6.29-8.61-11.29-11a13.8,13.8,0,0,0-9.93-1c-2,.53-2.38,1.77-1.12,3.3a10.88,10.88,0,0,0,2.93,2.7c4.24,2.3,7,6,9.37,10a73.71,73.71,0,0,1,4,7.93c3,6.84,8.44,10.63,15.53,12.25a46.53,46.53,0,0,0,17,.35c1.37-.2,2.75-.35,4.33-.55,0,3,0,6,0,9.06,0,3.47-.07,6.94.11,10.4.28,5.37-3.67,7.4-8.38,5.83a106.62,106.62,0,0,1-27-13.59A110.88,110.88,0,0,1,16.33,53.07,110.88,110.88,0,0,1,95.13,1.23C99.4.63,103.74.51,108.05.16c.38,0,.75-.11,1.13-.16Z"/><path class="cls-1" d="M260.6,110.84c.38-4.79.58-9.6,1.17-14.36,1.46-11.83,4.6-23.08,12.11-32.7,6.34-8.11,14.76-12.87,24.64-15.22A75.9,75.9,0,0,1,319,46.81c8.31.3,16.57.95,24.53,3.58,1.82.6,3.54,1.49,5.31,2.25a1.9,1.9,0,0,1,1.1,2.47c-1.46,6.12-3,12.22-4.36,18.35-.39,1.68-1.35,2.05-2.72,1.57A56.67,56.67,0,0,0,327.67,72c-6.11-.36-12.25-.64-18.29.73-9.94,2.26-16,8.65-19.09,18.13-3.14,9.74-3.18,19.77-2.44,29.84a47,47,0,0,0,4.7,18.33c4.37,8.46,11.5,12.59,20.87,12.73,4.42.07,8.85-.43,13.27-.71a11.72,11.72,0,0,0,1.85-.44V125.84h-1.8c-4.32,0-8.64,0-12.95,0-2.2,0-2.8-.61-2.81-2.78q0-8.82,0-17.64c0-2.44.44-2.87,2.81-2.87h38.62c2.21,0,2.51.28,2.51,2.5q0,30.14,0,60.25a2.63,2.63,0,0,1-1.4,2.59,65.66,65.66,0,0,1-23.37,8c-1.54.23-3.08.48-4.62.72H310.92c-.55-.12-1.09-.25-1.64-.34-4-.66-8-1-11.94-2-11.5-2.95-20.79-9.17-27.13-19.4-4.87-7.86-7.31-16.58-8.44-25.67-.59-4.7-.79-9.44-1.17-14.16Z"/><path class="cls-1" d="M435.39,175.09c-10-2.38-16.44-9.37-17.81-19.67a79.65,79.65,0,0,1-.72-9.88c-.09-10.26,0-20.53,0-30.79v-2.39h-4.7c-2.32,0-4.63,0-6.95,0-1.29,0-2-.56-2.05-1.87,0-4.79-.07-9.59-.05-14.39,0-1.41,1.1-1.84,2.25-2.12,3.2-.78,6.4-1.6,9.63-2.29,1.36-.29,1.93-.79,1.91-2.31-.09-6.76,0-13.52,0-20.28,0-2.28.21-2.51,2.42-2.52,7.13,0,14.27,0,21.4,0,1.51,0,2.11.5,2.1,2.07-.06,6.64,0,13.27-.06,19.9,0,1.56.45,2.06,2,2,4.76-.09,9.51,0,14.27,0,2.25,0,2.69.38,2.7,2.55q0,8.35,0,16.71c0,2.18-.45,2.56-2.69,2.56-4.76,0-9.52.06-14.27,0-1.56,0-2,.46-2,2,.06,10.14.17,20.28,0,30.41-.13,7.41,4,9.94,10,10.33,2.17.13,4.36-.22,6.55-.3,2.36-.08,2.67.22,2.68,2.5,0,4.75-.08,9.51.05,14.26.05,2-.74,2.84-2.59,3.15C456,175.27,442.71,176.82,435.39,175.09Z"/><path class="cls-1" d="M394.35,132.33q0,19,0,38.09c0,3.43-.41,3.82-3.91,3.82H371.86c-2.95,0-3.79-.81-3.79-3.78q0-38.47,0-76.95c0-2.35.64-3,3-3q10.23,0,20.46,0c2.65,0,2.83.19,2.83,2.94Q394.37,112.91,394.35,132.33Z"/><path class="cls-1" d="M381.54,83.57a14.72,14.72,0,0,1-.09-29.43,14.85,14.85,0,0,1,14.65,14.7A14.7,14.7,0,0,1,381.54,83.57Z"/><rect class="cls-1" x="472.6" y="154.28" width="50.34" height="21.61" rx="1.42"/><path class="cls-1" d="M576.49,151.35c-2,.47-3.6,1.17-5,1.44a22.05,22.05,0,0,1-4.4.42c-1.85,0-7.5,0-7.5-12.19V50.9a1.41,1.41,0,0,0-1.42-1.42H534.72a1.41,1.41,0,0,0-1.41,1.42v104c0,7.68,2.07,13.31,6.17,16.73s9.89,5.09,17.38,5.09a58.7,58.7,0,0,0,13.33-1.5,48.85,48.85,0,0,0,9.17-2.74,2.49,2.49,0,0,0,.91-.69,1.88,1.88,0,0,0,.34-1.65l-2.75-17.68C577.8,152.09,577.58,151.1,576.49,151.35Z"/><path class="cls-1" d="M656.85,92.38A37,37,0,0,0,643.3,82a45.42,45.42,0,0,0-19-3.73c-13.79,0-24.56,4.43-32,13.16s-11.23,20.86-11.23,36.08a69.19,69.19,0,0,0,2.59,19.31,44.4,44.4,0,0,0,8,15.63,37.07,37.07,0,0,0,13.55,10.41,45.8,45.8,0,0,0,19.14,3.72,47.18,47.18,0,0,0,18.24-3.36,36.58,36.58,0,0,0,13.63-9.79,44.37,44.37,0,0,0,8.48-15.54,67.05,67.05,0,0,0,2.91-20.38A68.05,68.05,0,0,0,664.91,108,45.33,45.33,0,0,0,656.85,92.38Zm-46.08,14.41c3.25-4.14,7.81-6.24,13.55-6.24a17.49,17.49,0,0,1,8.58,2,15.51,15.51,0,0,1,5.7,5.48,25.7,25.7,0,0,1,3.21,8.51,55.93,55.93,0,0,1,1,11c0,18-6.05,26.77-18.5,26.77a15.88,15.88,0,0,1-8.46-2.13,17.23,17.23,0,0,1-5.66-5.67,27.15,27.15,0,0,1-3.3-8.44,49,49,0,0,1-1.08-10.53C605.82,117.94,607.48,111,610.77,106.79Z"/><path class="cls-1" d="M754.21,83.11a83.38,83.38,0,0,0-13.11-3,122.46,122.46,0,0,0-21.16-1.66c-15.09,0-26.66,4.18-34.37,12.43S674,111.49,674,127.66c0,15.34,3,26.66,8.85,33.64s14.81,10.56,26.52,10.56a41.69,41.69,0,0,0,14.3-2.13,18.32,18.32,0,0,0,9-7.06h.53v5.77a31.18,31.18,0,0,1-1,8.21,14.1,14.1,0,0,1-3.38,6.08,15.42,15.42,0,0,1-6.54,3.84,36,36,0,0,1-10.68,1.34,35.66,35.66,0,0,1-13-2.11c-3.12-1.23-6.13-2.53-8.44-3.72a1.37,1.37,0,0,0-1.78.56c-.34.66-1.95,6.1-2.66,8.87-.65,2.51-1.56,5.16-2.64,9.36-.51,2-.26,2.64.52,3a90.35,90.35,0,0,0,11.5,4c5.14,1.22,12,1.84,20.4,1.84,13.15,0,23.47-3.29,30.7-9.77s11-16.78,11-30.44V87.19a6,6,0,0,0-.66-2.36A4.61,4.61,0,0,0,754.21,83.11Zm-21.52,21v37a1.49,1.49,0,0,1-.16.69,17.18,17.18,0,0,1-6.21,6.35c-3,1.86-6.94,2.81-11.69,2.81a13.31,13.31,0,0,1-11.35-5.7c-2.85-3.84-4.3-10.11-4.3-18.63,0-9.3,1.7-16,5.07-20s8.2-5.92,14.44-5.92a37.59,37.59,0,0,1,13.32,2.08A1.4,1.4,0,0,1,732.69,104.12Z"/></g></g></svg>