<svg xmlns="http://www.w3.org/2000/svg" viewBox="0 0 496.48 469.24"><defs><style>.cls-1{fill:#0d2636;}</style></defs><g id="레이어_2" data-name="레이어 2"><g id="레이어_1-2" data-name="레이어 1"><path class="cls-1" d="M250.11,0l10.45.73a134,134,0,0,1,30.36,5.82,141.65,141.65,0,0,1,38.84,18.83A143.83,143.83,0,0,1,374,73.9a142.39,142.39,0,0,1,16.07,45A139.66,139.66,0,0,1,392,153.75c-2.14,29.43-12.13,55.91-30.3,79.22a141.62,141.62,0,0,1-52.84,42c-4.56,2.11-9.32,3.81-14,5.62a8.46,8.46,0,0,1-6.2.05c-2.94-1.12-4.31-3.68-4.28-7.75.1-13.14.33-26.27.22-39.4-.06-8-1.65-15.75-6.67-22.36-.78-1-1.69-2-2.67-3.1,3.25-.51,6.33-.91,9.38-1.47,11.43-2.08,22.36-5.49,31.94-12.38,10.57-7.61,17.13-17.95,20.63-30.32a90.37,90.37,0,0,0,2.95-35.22,52.76,52.76,0,0,0-13-29.27,2.8,2.8,0,0,1-.72-3.13c4-12.07,2.79-24-1.66-35.65a2.68,2.68,0,0,0-2-1.21c-6.59-.52-12.81,1.24-18.6,4.07-6.32,3.07-12.33,6.76-18.5,10.13a3.23,3.23,0,0,1-2.18.37,135.67,135.67,0,0,0-40-4.42,125,125,0,0,0-29,4.31,3.73,3.73,0,0,1-3.43-.48c-7.77-5.11-15.86-9.64-24.81-12.39a33.16,33.16,0,0,0-11.79-1.67,2.1,2.1,0,0,0-2.18,1.57c-4.42,11.81-5.42,23.75-1.38,35.86a2.17,2.17,0,0,1-.7,2.44,54.82,54.82,0,0,0-9.42,15.18,51.4,51.4,0,0,0-4.11,17.56c-.59,12.11.41,24.08,4.43,35.62,5.71,16.37,16.81,27.54,32.88,33.9a101.28,101.28,0,0,0,26.62,6.3c.28,0,.55.21.41.16-2,3.58-4.19,7-5.93,10.72a33.7,33.7,0,0,0-1.84,6.83,2.85,2.85,0,0,1-2,2.35c-7,2.63-14,3.84-21.41,2.14-7.9-1.83-13.53-6.71-17.78-13.35-3.79-5.92-8.17-11.18-14.66-14.32a18,18,0,0,0-12.91-1.35c-2.53.69-3.09,2.3-1.45,4.29a14.41,14.41,0,0,0,3.81,3.51c5.51,3,9.09,7.75,12.17,12.93a95.64,95.64,0,0,1,5.22,10.3c3.95,8.88,11,13.81,20.18,15.91a60.15,60.15,0,0,0,22.14.45c1.79-.26,3.58-.45,5.64-.7,0,3.93,0,7.84,0,11.76,0,4.5-.09,9,.15,13.51.37,7-4.76,9.62-10.89,7.58a138.66,138.66,0,0,1-35.07-17.66A144,144,0,0,1,125.35,69,143.95,143.95,0,0,1,227.72,1.6C233.27.82,238.91.66,244.5.2c.5,0,1-.13,1.48-.2Z"/><path class="cls-1" d="M0,370.39c.38-4.79.58-9.6,1.17-14.36,1.46-11.83,4.6-23.09,12.11-32.7,6.34-8.11,14.76-12.87,24.64-15.22a75.1,75.1,0,0,1,20.45-1.75c8.31.3,16.57.95,24.53,3.57,1.82.6,3.55,1.5,5.32,2.26a1.89,1.89,0,0,1,1.09,2.47c-1.46,6.11-3,12.22-4.36,18.34-.38,1.68-1.35,2.06-2.72,1.58a56.2,56.2,0,0,0-15.16-3.07c-6.11-.36-12.25-.64-18.29.73-9.94,2.25-16,8.64-19.09,18.13-3.14,9.74-3.18,19.77-2.44,29.83A46.91,46.91,0,0,0,32,398.53c4.37,8.47,11.5,12.59,20.87,12.74,4.42.07,8.85-.43,13.27-.71a11.72,11.72,0,0,0,1.85-.44V385.39H53.19c-2.19,0-2.8-.62-2.8-2.78q0-8.82,0-17.64c0-2.44.44-2.87,2.81-2.87H91.82c2.2,0,2.5.29,2.5,2.51q0,30.12,0,60.25a2.62,2.62,0,0,1-1.4,2.58,65.68,65.68,0,0,1-23.37,8c-1.54.22-3.08.47-4.61.71H50.32c-.55-.11-1.09-.24-1.64-.33-4-.66-8-1-11.94-2C25.24,430.8,16,424.57,9.61,414.35c-4.87-7.87-7.31-16.58-8.44-25.67C.58,384,.38,379.24,0,374.52Z"/><path class="cls-1" d="M174.79,434.64c-10-2.38-16.44-9.37-17.81-19.67a79.81,79.81,0,0,1-.72-9.89c-.08-10.26,0-20.52,0-30.78v-2.39h-4.7c-2.31,0-4.63,0-6.94,0-1.3,0-2.05-.56-2.06-1.87,0-4.8-.07-9.59-.05-14.39,0-1.42,1.1-1.84,2.25-2.12,3.2-.78,6.4-1.6,9.63-2.29,1.36-.29,1.93-.79,1.91-2.32-.09-6.75,0-13.51,0-20.27,0-2.29.21-2.52,2.42-2.52,7.13,0,14.27,0,21.4,0,1.51,0,2.11.5,2.1,2.07-.06,6.63,0,13.27-.06,19.9,0,1.56.45,2.06,2,2,4.76-.09,9.51,0,14.27,0,2.25,0,2.69.37,2.7,2.55q0,8.36,0,16.71c0,2.18-.45,2.56-2.69,2.56-4.76,0-9.52.06-14.27,0-1.56,0-2,.45-2,2,.06,10.14.17,20.28,0,30.41-.13,7.4,4,9.94,10,10.32,2.17.14,4.36-.22,6.55-.29,2.36-.09,2.68.21,2.68,2.49,0,4.76-.07,9.52,0,14.27.05,2-.74,2.84-2.59,3.14C195.36,434.81,182.11,436.37,174.79,434.64Z"/><path class="cls-1" d="M133.76,391.87q0,19,0,38.1c0,3.43-.41,3.82-3.91,3.82H111.26c-3,0-3.79-.81-3.79-3.79q0-38.46,0-76.94c0-2.35.64-3,3-3h20.46c2.65,0,2.83.19,2.83,2.94Q133.76,372.46,133.76,391.87Z"/><path class="cls-1" d="M120.94,343.12a14.72,14.72,0,1,1,14.56-14.73A14.7,14.7,0,0,1,120.94,343.12Z"/><rect class="cls-1" x="212" y="413.83" width="50.34" height="21.61" rx="1.42"/><path class="cls-1" d="M315.89,410.9c-2,.46-3.6,1.17-5,1.44a22.76,22.76,0,0,1-4.4.41c-1.85,0-7.5,0-7.5-12.18V310.44a1.41,1.41,0,0,0-1.42-1.41H274.12a1.41,1.41,0,0,0-1.41,1.41v104c0,7.68,2.07,13.31,6.17,16.73s9.89,5.09,17.39,5.09a58.68,58.68,0,0,0,13.32-1.5,49.51,49.51,0,0,0,9.17-2.75,2.38,2.38,0,0,0,.91-.69,1.85,1.85,0,0,0,.35-1.64L317.26,412C317.2,411.63,317,410.65,315.89,410.9Z"/><path class="cls-1" d="M396.25,351.92a37.07,37.07,0,0,0-13.55-10.41,45.42,45.42,0,0,0-19-3.72c-13.78,0-24.56,4.43-32,13.16S320.46,371.8,320.46,387a69.07,69.07,0,0,0,2.59,19.3A44.23,44.23,0,0,0,331,422a36.85,36.85,0,0,0,13.55,10.41,45.8,45.8,0,0,0,19.14,3.73A47,47,0,0,0,382,432.73a36.36,36.36,0,0,0,13.63-9.79,44,44,0,0,0,8.48-15.54A67,67,0,0,0,407,387a68,68,0,0,0-2.67-19.48A45.47,45.47,0,0,0,396.25,351.92Zm-46.08,14.42c3.25-4.15,7.81-6.25,13.55-6.25a17.49,17.49,0,0,1,8.58,2,15.51,15.51,0,0,1,5.7,5.48,25.73,25.73,0,0,1,3.21,8.5,56,56,0,0,1,1,11c0,18-6.05,26.76-18.5,26.76a15.9,15.9,0,0,1-8.46-2.12A17.17,17.17,0,0,1,349.6,406a26.8,26.8,0,0,1-3.29-8.44A48.18,48.18,0,0,1,345.22,387C345.22,377.49,346.88,370.53,350.17,366.34Z"/><path class="cls-1" d="M493.61,342.66a82.26,82.26,0,0,0-13.11-3A121.41,121.41,0,0,0,459.34,338c-15.09,0-26.66,4.19-34.37,12.44S413.35,371,413.35,387.2c0,15.35,3,26.66,8.85,33.65s14.82,10.56,26.52,10.56a41.89,41.89,0,0,0,14.3-2.13,18.38,18.38,0,0,0,9-7.06h.53V428a31.2,31.2,0,0,1-1,8.22,14,14,0,0,1-3.38,6.07,15.32,15.32,0,0,1-6.54,3.84,42,42,0,0,1-23.72-.76c-3.11-1.24-6.13-2.53-8.44-3.72a1.35,1.35,0,0,0-1.78.56c-.34.65-1.95,6.09-2.66,8.86-.64,2.51-1.56,5.17-2.64,9.36-.51,2-.26,2.65.52,3a89.87,89.87,0,0,0,11.51,4c5.13,1.22,12,1.84,20.4,1.84,13.14,0,23.47-3.29,30.69-9.77s11-16.78,11-30.45V346.74a6,6,0,0,0-.66-2.36A4.61,4.61,0,0,0,493.61,342.66Zm-21.51,21v37a1.46,1.46,0,0,1-.17.68,17,17,0,0,1-6.21,6.35c-3,1.87-6.94,2.82-11.69,2.82a13.33,13.33,0,0,1-11.35-5.7c-2.85-3.85-4.3-10.12-4.3-18.64,0-9.3,1.71-16,5.07-20s8.2-5.92,14.44-5.92a37.59,37.59,0,0,1,13.32,2.08A1.41,1.41,0,0,1,472.1,363.67Z"/></g></g></svg>