<svg xmlns="http://www.w3.org/2000/svg" viewBox="0 0 22.76 21.34"><defs><style>.cls-1{fill:none;stroke:#000;stroke-linejoin:round;stroke-width:1.5px;}</style></defs><g id="레이어_2" data-name="레이어 2"><g id="레이어_1-2" data-name="레이어 1"><path class="cls-1" d="M21.13,3.17A5.32,5.32,0,0,0,16.62.75a5.75,5.75,0,0,0-3.4,1.15A9.25,9.25,0,0,0,11.38,4,9.51,9.51,0,0,0,9.54,1.9,5.74,5.74,0,0,0,6.13.75a5.31,5.31,0,0,0-4.5,2.42,7.71,7.71,0,0,0-.5,6A14.36,14.36,0,0,0,4.61,14.4a55,55,0,0,0,6.77,6.19,56.52,56.52,0,0,0,6.77-6.19,14.34,14.34,0,0,0,3.47-5.24A7.62,7.62,0,0,0,21.13,3.17Z"/></g></g></svg>